<svg width="732" height="260" viewBox="0 0 732 260" fill="none" xmlns="http://www.w3.org/2000/svg">
<path fill-rule="evenodd" clip-rule="evenodd" d="M116.514 1.99095C116.514 1.43866 116.961 0.990948 117.514 0.990948L145.675 0.990949C146.227 0.990948 146.675 1.43866 146.675 1.99095V27.1415L162.587 1.17682C162.84 0.764426 163.351 0.592019 163.802 0.767367L439.862 108.153H340.56L178.003 44.9191L139.251 108.153H97.0285L116.514 76.3579V1.99095ZM42.5929 196.979L27.6398 221.379L23.6483 227.893L6.04444 256.618L5.33301 257.779C4.90484 258.478 5.45263 259.367 6.26919 259.298L7.62602 259.184L41.1984 256.369L48.8109 255.73L600.912 209.428L643.37 205.868L677.807 202.98L678.294 202.939C679.351 202.85 679.561 201.395 678.573 201.01L678.118 200.833L668.211 196.979H318.584L72.1498 217.647L84.8153 196.979H42.5929Z" fill="#1C7253"/>
<path d="M99.1593 128.116H114.424V177.816H99.1593V147.357L72.6763 168.373L45.5543 147.215V177.816H30.2893V128.116H45.5543L72.6763 148.777L99.1593 128.116ZM185.932 177.816L183.873 169.935H136.516L134.457 177.816H118.695L131.83 128.116H188.63L201.765 177.816H185.932ZM140.066 156.09H180.252L176.56 141.819H143.758L140.066 156.09ZM229.057 178.668C213.508 178.668 201.793 168.373 201.793 152.966C201.793 137.63 213.153 127.264 229.057 127.264H257.457C270.805 127.193 280.958 134.506 283.869 145.937H266.403C264.415 143.452 261.149 141.819 257.457 141.819H229.057C222.17 141.819 217.697 146.718 217.697 153.321C217.697 159.853 222.17 164.752 229.057 164.752H257.457C261.646 164.752 264.841 162.906 265.835 161.202H243.257V149.842L284.508 149.913V152.966C284.508 167.237 273.361 178.668 257.457 178.668H229.057ZM353.137 128.116H368.473V177.816H353.137L305.496 146.718V177.816H290.16V128.116H305.496L353.137 159.285V128.116ZM400.077 178.668C384.883 178.668 375.582 170.574 375.582 155.167V128.116H391.202V154.244C391.202 159.498 393.545 164.113 400.077 164.113H428.477C435.08 164.113 437.352 159.498 437.352 154.244V128.116H452.972V155.167C452.972 170.574 443.671 178.668 428.477 178.668H400.077ZM517.613 146.434C529.399 146.434 535.505 152.611 535.505 161.415C535.505 171.639 528.263 178.384 511.578 178.668H482.184C462.304 178.668 459.038 167.592 459.038 160.918H474.729C475.155 163.403 478.137 164.752 483.178 164.752H511.578C517.187 164.752 519.53 163.616 519.53 161.699C519.53 160.279 518.323 159.072 514.702 159.072H478.421C466.067 159.072 459.819 153.392 459.819 144.588C459.819 135.926 465.428 127.406 482.965 127.264H511.862C531.955 127.264 534.44 139.689 534.44 144.517H518.749C518.465 142.458 516.548 140.683 511.436 140.683H482.965C477.072 140.683 475.723 142.316 475.723 143.807C475.723 145.298 476.93 146.434 480.125 146.434H517.613ZM610.442 141.606H557.192V146.576H605.614V159.498H557.192V164.326H610.442V177.816H541.572V128.116H610.442V141.606ZM686.435 128.116H701.7V177.816H686.435V147.357L659.952 168.373L632.83 147.215V177.816H617.565V128.116H632.83L659.952 148.777L686.435 128.116Z" fill="#fff"/>
</svg>
